<svg width="395" height="123" viewBox="0 0 395 123" fill="none" xmlns="http://www.w3.org/2000/svg">
<circle cx="67.7463" cy="61.3198" r="50.0733" fill="white"/>
<mask id="mask0_1_37" style="mask-type:alpha" maskUnits="userSpaceOnUse" x="17" y="11" width="101" height="101">
<circle cx="67.7463" cy="61.3198" r="47.9311" fill="white" stroke="#FF7979" stroke-width="4.28435"/>
</mask>
<g mask="url(#mask0_1_37)">
<path d="M67.376 89.249C53.4685 90.8588 37.2893 86.5804 35.9459 69.9228C34.8081 55.8137 48.892 42.8424 65.9846 42.8424C80.0937 42.8424 94.2499 51.2175 98.0949 66.4868C101.94 81.7562 117.87 141.909 117.87 141.909L78.5949 156.17C76.4181 136.171 71.2763 96.3079 67.376 89.249Z" fill="white" stroke="black" stroke-width="4.28435"/>
<path d="M67.376 89.249C53.4685 90.8588 37.2893 86.5804 35.9459 69.9228" stroke="black" stroke-width="4.28435"/>
<path d="M66.8949 89.2658C68.3361 89.1141 71.6737 88.5376 73.4943 87.4453" stroke="black" stroke-width="4.28435" stroke-linecap="round"/>
<circle cx="64.2736" cy="59.5749" r="2.45333" fill="black"/>
<circle cx="48.3269" cy="58.9616" r="2.45333" fill="black"/>
</g>
<circle cx="67.7463" cy="61.3198" r="47.9311" stroke="black" stroke-width="4.28435"/>
<path d="M97.843 48.0121C97.7324 49.3368 93.1846 55.9643 93.1846 55.9643C86.3833 45.7823 75.1838 44.2412 68.3105 52.5711C59.9789 50.4018 46.8394 48.6258 38.778 52.6486L36.4552 46.1519C41.7644 34.2294 57.3032 32.6682 66.1397 32.6682C83.5448 32.6682 93.1846 40.1658 97.843 48.0121Z" fill="#FF6A6A" stroke="#941B1B" stroke-width="4.28435" stroke-linejoin="round"/>
<path d="M95.8623 47.6634L92.9168 53.2866C86.6735 45.3687 72.3551 43.7433 67.4785 50.3411L67.4785 43.9146C69.0426 42.2082 75.7113 38.8064 83.2132 40.0502C90.7151 41.2939 94.1169 45.3294 95.8623 47.6634Z" fill="#E11919"/>
<path d="M72.3125 41.1976C64.3436 40.9568 62.7006 40.6347 55.3879 43.2056H50.2244C60.8345 38.2258 63.6555 38.171 76.6154 40.0502L72.3125 41.1976Z" fill="#FF9E9E"/>
<path d="M80.3446 39.7633C69.9294 35.9408 51.2066 36.6789 45.6347 43.2056L42.4792 43.2056C52.8649 34.5727 71.457 34.7794 84.6475 40.337L80.3446 39.7633Z" fill="#FF9E9E"/>
<path d="M145.852 85.9081C143.106 85.9081 140.619 85.202 138.391 83.79C136.179 82.3622 134.422 80.2676 133.12 77.5062C131.833 74.7291 131.19 71.3244 131.19 67.2922C131.19 63.1501 131.857 59.7062 133.19 56.9605C134.524 54.1991 136.297 52.1359 138.509 50.7709C140.737 49.3902 143.177 48.6998 145.828 48.6998C147.852 48.6998 149.539 49.045 150.888 49.7353C152.253 50.41 153.352 51.2573 154.183 52.2771C155.03 53.2812 155.674 54.2697 156.113 55.2424H156.419V37.1208H166.421V85.3197H156.537V79.5302H156.113C155.642 80.5343 154.976 81.5306 154.113 82.5191C153.265 83.4918 152.159 84.2999 150.794 84.9431C149.445 85.5864 147.797 85.9081 145.852 85.9081ZM149.029 77.9298C150.645 77.9298 152.01 77.4905 153.124 76.6119C154.254 75.7176 155.117 74.4702 155.713 72.8699C156.325 71.2695 156.631 69.3946 156.631 67.2451C156.631 65.0956 156.333 63.2285 155.736 61.6439C155.14 60.0592 154.277 58.8354 153.148 57.9725C152.018 57.1095 150.645 56.6781 149.029 56.6781C147.382 56.6781 145.993 57.1252 144.863 58.0195C143.734 58.9139 142.879 60.1533 142.298 61.738C141.718 63.3227 141.427 65.1584 141.427 67.2451C141.427 69.3475 141.718 71.2068 142.298 72.8228C142.894 74.4232 143.749 75.6784 144.863 76.5884C145.993 77.4827 147.382 77.9298 149.029 77.9298ZM191.138 86.0257C187.42 86.0257 184.219 85.2726 181.536 83.7664C178.869 82.2445 176.814 80.095 175.37 77.3179C173.927 74.5252 173.205 71.2225 173.205 67.4099C173.205 63.6914 173.927 60.4279 175.37 57.6194C176.814 54.811 178.846 52.6223 181.466 51.0533C184.102 49.4843 187.192 48.6998 190.738 48.6998C193.123 48.6998 195.343 49.0842 197.399 49.853C199.47 50.6061 201.274 51.7436 202.812 53.2655C204.365 54.7874 205.573 56.7016 206.436 59.008C207.299 61.2987 207.73 63.9816 207.73 67.0568V69.8104H177.206V63.5972H198.293C198.293 62.1538 197.979 60.8751 197.352 59.7611C196.724 58.6471 195.853 57.7763 194.739 57.1488C193.641 56.5055 192.362 56.1838 190.903 56.1838C189.381 56.1838 188.032 56.5369 186.855 57.2429C185.694 57.9332 184.784 58.8668 184.125 60.0435C183.466 61.2046 183.129 62.499 183.113 63.9267V69.8339C183.113 71.6225 183.443 73.168 184.102 74.4702C184.776 75.7725 185.725 76.7766 186.949 77.4827C188.173 78.1887 189.624 78.5417 191.303 78.5417C192.417 78.5417 193.437 78.3848 194.363 78.071C195.288 77.7572 196.081 77.2865 196.74 76.659C197.399 76.0314 197.901 75.2626 198.246 74.3526L207.519 74.9645C207.048 77.1924 206.083 79.1379 204.624 80.8011C203.18 82.4485 201.313 83.735 199.023 84.6607C196.748 85.5707 194.119 86.0257 191.138 86.0257ZM224.299 64.421V85.3197H214.273V49.1705H223.828V55.5484H224.252C225.052 53.446 226.393 51.7829 228.276 50.5591C230.159 49.3196 232.442 48.6998 235.125 48.6998C237.635 48.6998 239.824 49.249 241.691 50.3472C243.558 51.4455 245.009 53.0145 246.045 55.0542C247.08 57.0781 247.598 59.4944 247.598 62.3028V85.3197H237.572V64.0915C237.588 61.8792 237.023 60.1533 235.878 58.9139C234.732 57.6587 233.156 57.0311 231.147 57.0311C229.798 57.0311 228.606 57.3213 227.57 57.9019C226.55 58.4824 225.75 59.3296 225.169 60.4436C224.605 61.5419 224.314 62.8677 224.299 64.421ZM271.833 86.0257C268.177 86.0257 265.016 85.2491 262.348 83.6958C259.697 82.1268 257.649 79.946 256.206 77.1532C254.762 74.3447 254.041 71.0891 254.041 67.3863C254.041 63.6522 254.762 60.3887 256.206 57.5959C257.649 54.7874 259.697 52.6066 262.348 51.0533C265.016 49.4843 268.177 48.6998 271.833 48.6998C275.488 48.6998 278.642 49.4843 281.294 51.0533C283.961 52.6066 286.016 54.7874 287.46 57.5959C288.903 60.3887 289.625 63.6522 289.625 67.3863C289.625 71.0891 288.903 74.3447 287.46 77.1532C286.016 79.946 283.961 82.1268 281.294 83.6958C278.642 85.2491 275.488 86.0257 271.833 86.0257ZM271.88 78.2593C273.543 78.2593 274.931 77.7886 276.045 76.8472C277.159 75.8902 277.999 74.5879 278.564 72.9405C279.144 71.2931 279.434 69.4181 279.434 67.3157C279.434 65.2133 279.144 63.3384 278.564 61.6909C277.999 60.0435 277.159 58.7413 276.045 57.7842C274.931 56.8271 273.543 56.3486 271.88 56.3486C270.201 56.3486 268.789 56.8271 267.644 57.7842C266.514 58.7413 265.659 60.0435 265.078 61.6909C264.514 63.3384 264.231 65.2133 264.231 67.3157C264.231 69.4181 264.514 71.2931 265.078 72.9405C265.659 74.5879 266.514 75.8902 267.644 76.8472C268.789 77.7886 270.201 78.2593 271.88 78.2593ZM317.937 62.0675V67.2451H296.85V62.0675H317.937ZM327.71 49.1705H333.264V87.9556C333.264 90.1835 332.88 92.1134 332.111 93.7451C331.358 95.3768 330.212 96.6399 328.675 97.5342C327.153 98.4285 325.231 98.8756 322.909 98.8756C322.721 98.8756 322.532 98.8756 322.344 98.8756C322.156 98.8756 321.967 98.8756 321.779 98.8756V93.698C321.967 93.698 322.14 93.698 322.297 93.698C322.454 93.698 322.626 93.698 322.815 93.698C324.509 93.698 325.749 93.196 326.533 92.1918C327.318 91.2034 327.71 89.7913 327.71 87.9556V49.1705ZM330.44 43.1457C329.357 43.1457 328.424 42.7769 327.639 42.0395C326.87 41.3021 326.486 40.4156 326.486 39.3801C326.486 38.3446 326.87 37.4581 327.639 36.7207C328.424 35.9833 329.357 35.6146 330.44 35.6146C331.522 35.6146 332.448 35.9833 333.217 36.7207C334.001 37.4581 334.394 38.3446 334.394 39.3801C334.394 40.4156 334.001 41.3021 333.217 42.0395C332.448 42.7769 331.522 43.1457 330.44 43.1457ZM354.075 86.1669C351.784 86.1669 349.705 85.7355 347.838 84.8725C345.971 83.9939 344.488 82.7309 343.39 81.0835C342.292 79.4204 341.742 77.4121 341.742 75.0586C341.742 72.9876 342.15 71.3088 342.966 70.0222C343.782 68.7199 344.872 67.7001 346.237 66.9627C347.603 66.2253 349.109 65.6761 350.756 65.3153C352.419 64.9387 354.09 64.6406 355.769 64.421C357.966 64.1385 359.746 63.9267 361.111 63.7855C362.492 63.6286 363.496 63.3697 364.124 63.0089C364.767 62.648 365.089 62.0204 365.089 61.1261V60.9378C365.089 58.6157 364.453 56.8114 363.182 55.5249C361.927 54.2383 360.021 53.595 357.464 53.595C354.812 53.595 352.733 54.1755 351.227 55.3366C349.721 56.4976 348.662 57.7371 348.05 59.0551L342.778 57.1723C343.719 54.9757 344.974 53.2655 346.543 52.0417C348.128 50.8022 349.854 49.9393 351.721 49.4529C353.604 48.9509 355.455 48.6998 357.275 48.6998C358.436 48.6998 359.77 48.841 361.276 49.1234C362.798 49.3902 364.265 49.9472 365.677 50.7944C367.105 51.6417 368.289 52.9204 369.231 54.6305C370.172 56.3407 370.643 58.6314 370.643 61.5027V85.3197H365.089V80.4245H364.806C364.43 81.209 363.802 82.0484 362.924 82.9427C362.045 83.837 360.876 84.598 359.417 85.2256C357.958 85.8532 356.177 86.1669 354.075 86.1669ZM354.922 81.1776C357.118 81.1776 358.97 80.7461 360.476 79.8832C361.998 79.0203 363.143 77.9063 363.912 76.5413C364.696 75.1763 365.089 73.7407 365.089 72.2344V67.151C364.853 67.4334 364.336 67.6923 363.535 67.9276C362.751 68.1473 361.841 68.3434 360.805 68.516C359.786 68.6729 358.789 68.8141 357.817 68.9396C356.859 69.0494 356.083 69.1436 355.487 69.222C354.043 69.4103 352.694 69.7162 351.439 70.1399C350.199 70.5478 349.195 71.1675 348.426 71.9991C347.673 72.815 347.297 73.9289 347.297 75.341C347.297 77.2709 348.01 78.73 349.438 79.7185C350.882 80.6912 352.71 81.1776 354.922 81.1776Z" fill="black"/>
</svg>
