<?xml version="1.0" encoding="UTF-8"?><svg id="_レイヤー_2" xmlns="http://www.w3.org/2000/svg" viewBox="0 0 558.91 163.15"><defs><style>.cls-1{fill:#150201;}</style></defs><g id="_ロゴ"><path class="cls-1" d="m384.63,23.55V6.06h-46.79c-5.18,0-9.37,4.2-9.37,9.37v59.67l7.8,14.29c.66,1.21.22,2.73-.99,3.39-.38.21-.79.31-1.2.31-.89,0-1.74-.47-2.2-1.3l-3.42-6.26v22.37h17.49v-45.48h32.08v-17.49h-32.08v-21.38h38.67Zm-46.52,76.46c-1.47,0-2.65-1.19-2.65-2.65s1.19-2.65,2.65-2.65,2.65,1.19,2.65,2.65-1.19,2.65-2.65,2.65Z"/><path class="cls-1" d="m7.16,133.12v3.69c1.94-2.99,4.01-4.18,7.41-4.18,5.65,0,9.57,4.31,9.57,10.47s-3.93,10.77-9.57,10.77c-1.59,0-3.04-.35-4.46-1.06-1.23-.62-1.85-1.14-2.96-2.59v12.67h-3.35v-29.77h3.35Zm0,10.47c0,4.44,2.69,7.39,6.71,7.39s6.71-3.12,6.71-7.74c0-2.38-.57-4.18-1.76-5.5s-3-2.11-4.81-2.11c-4.06,0-6.84,3.21-6.84,7.96Z"/><path class="cls-1" d="m32.57,133.12v3.43c.62-1.45,1.06-2.07,1.85-2.68,1.01-.79,2.43-1.23,3.88-1.23h.79v3.39c-.35-.04-.71-.04-.93-.04-1.81,0-3.4.84-4.41,2.33-.88,1.28-1.19,2.46-1.19,4.79v10.29h-3.35v-20.27h3.35Z"/><path class="cls-1" d="m45.19,144.33c.18,1.72.49,2.59,1.32,3.69,1.32,1.8,3.26,2.77,5.47,2.77,2.51,0,4.9-1.36,6.09-3.47l2.96,1.1c-1.68,3.39-5.16,5.45-9.04,5.45-6.04,0-10.37-4.4-10.37-10.55s4.28-10.69,10.23-10.69,10.32,4.44,10.32,10.38c0,.26,0,.84-.04,1.32h-16.94Zm13.41-2.46c-.13-1.58-.44-2.46-1.15-3.47-1.28-1.71-3.35-2.77-5.6-2.77s-4.28,1.06-5.47,2.81c-.62.97-.88,1.8-1.15,3.43h13.37Z"/><path class="cls-1" d="m76.42,138.66v-.22c0-1.89-1.54-3.08-3.88-3.08s-3.66,1.14-3.66,2.9.88,2.42,4.54,3.43c2.6.7,3.97,1.36,4.94,2.33,1.01,1.01,1.63,2.46,1.63,3.96,0,3.52-2.91,5.89-7.23,5.89-4.63,0-7.23-2.15-7.59-6.24h3.31c.22,2.29,1.72,3.52,4.28,3.52,2.29,0,3.79-1.19,3.79-2.99s-1.15-2.64-4.63-3.52c-4.41-1.19-6.4-3.04-6.4-6.11,0-3.52,2.87-5.89,7.15-5.89s6.93,2.2,7.1,6.02h-3.35Z"/><path class="cls-1" d="m87.1,144.33c.18,1.72.49,2.59,1.32,3.69,1.32,1.8,3.26,2.77,5.47,2.77,2.51,0,4.9-1.36,6.09-3.47l2.96,1.1c-1.68,3.39-5.16,5.45-9.04,5.45-6.04,0-10.37-4.4-10.37-10.55s4.28-10.69,10.23-10.69,10.32,4.44,10.32,10.38c0,.26,0,.84-.04,1.32h-16.94Zm13.41-2.46c-.13-1.58-.44-2.46-1.15-3.47-1.28-1.71-3.35-2.77-5.6-2.77s-4.28,1.06-5.47,2.81c-.62.97-.88,1.8-1.15,3.43h13.37Z"/><path class="cls-1" d="m112.29,133.12v2.86c1.76-2.37,3.53-3.34,6.04-3.34,1.85,0,3.53.62,4.72,1.67,1.28,1.23,1.72,2.64,1.72,5.41v13.68h-3.35v-12.93c0-1.8-.22-2.77-.75-3.47-.62-.83-1.81-1.36-3.18-1.36-1.5,0-2.87.57-3.88,1.71-.97,1.06-1.32,2.02-1.32,3.69v12.36h-3.35v-20.27h3.35Z"/><path class="cls-1" d="m134.97,149.26c.04,1.01.31,1.23,1.54,1.23h1.54v2.9h-3.13c-2.38-.04-3.31-.92-3.31-3.17v-14.16h-2.82v-2.95h2.82v-6.38h3.35v6.38h3.09v2.95h-3.09v13.19Z"/><path class="cls-1" d="m144.76,144.33c.18,1.72.49,2.59,1.32,3.69,1.32,1.8,3.26,2.77,5.47,2.77,2.51,0,4.9-1.36,6.09-3.47l2.96,1.1c-1.68,3.39-5.16,5.45-9.04,5.45-6.04,0-10.37-4.4-10.37-10.55s4.28-10.69,10.23-10.69,10.32,4.44,10.32,10.38c0,.26,0,.84-.04,1.32h-16.94Zm13.41-2.46c-.13-1.58-.44-2.46-1.15-3.47-1.28-1.71-3.35-2.77-5.6-2.77s-4.28,1.06-5.47,2.81c-.62.97-.88,1.8-1.15,3.43h13.37Z"/><path class="cls-1" d="m181.82,124.06h3.35v29.33h-3.35v-3.47c-2.03,2.77-4.19,3.96-7.28,3.96-5.6,0-9.57-4.35-9.57-10.51s4.06-10.73,9.57-10.73c3,0,5.29,1.1,7.28,3.56v-12.14Zm-13.32,19.35c0,4.44,2.69,7.56,6.53,7.56s6.79-3.25,6.79-7.65-2.69-7.7-6.57-7.7-6.75,3.17-6.75,7.78Z"/><path class="cls-1" d="m208.51,153.39h-3.35v-29.33h3.35v12.53c2.03-2.77,4.19-3.96,7.15-3.96,5.69,0,9.66,4.4,9.66,10.69s-3.93,10.55-9.48,10.55c-3.13,0-5.34-1.19-7.32-3.96v3.47Zm-.04-10.11c0,4.62,2.65,7.7,6.62,7.7s6.71-3.03,6.71-7.56-2.74-7.78-6.57-7.78-6.75,3.21-6.75,7.65Z"/><path class="cls-1" d="m242.49,133.12h3.66l-12.13,30.04h-3.66l4.23-10.38-7.23-19.66h3.57l5.47,15.04,6.09-15.04Z"/><path class="cls-1" d="m266.58,149.26c.04,1.01.31,1.23,1.54,1.23h1.54v2.9h-3.13c-2.38-.04-3.31-.92-3.31-3.17v-14.16h-2.82v-2.95h2.82v-6.38h3.35v6.38h3.09v2.95h-3.09v13.19Z"/><path class="cls-1" d="m293.49,143.32c0,5.94-4.59,10.55-10.41,10.55s-10.28-4.4-10.28-10.64,4.23-10.6,10.41-10.6,10.28,4.44,10.28,10.69Zm-17.25-.04c0,4.49,2.78,7.52,6.93,7.52s6.88-3.12,6.88-7.52-2.73-7.56-6.84-7.56-6.97,3.03-6.97,7.56Z"/><path class="cls-1" d="m301.96,133.12v3.43c.62-1.45,1.06-2.07,1.85-2.68,1.01-.79,2.43-1.23,3.88-1.23h.79v3.39c-.35-.04-.71-.04-.93-.04-1.81,0-3.4.84-4.41,2.33-.88,1.28-1.19,2.46-1.19,4.79v10.29h-3.35v-20.27h3.35Z"/><path class="cls-1" d="m327.99,133.12h3.35v20.27h-3.35v-3.91c-2.03,3.03-4.32,4.4-7.41,4.4-5.6,0-9.57-4.4-9.57-10.55s4.06-10.69,9.66-10.69c3.09,0,5.34,1.19,7.32,3.83v-3.34Zm-11.78,4.93c-1.06,1.45-1.68,3.39-1.68,5.37,0,4.31,2.82,7.56,6.53,7.56s6.97-3.56,6.97-7.92-2.82-7.43-6.88-7.43c-2.21,0-3.75.75-4.94,2.42Z"/><path class="cls-1" d="m341.45,133.12v2.86c1.76-2.37,3.53-3.34,6.04-3.34,1.85,0,3.53.62,4.72,1.67,1.28,1.23,1.72,2.64,1.72,5.41v13.68h-3.35v-12.93c0-1.8-.22-2.77-.75-3.47-.62-.83-1.81-1.36-3.18-1.36-1.5,0-2.87.57-3.88,1.71-.97,1.06-1.32,2.02-1.32,3.69v12.36h-3.35v-20.27h3.35Z"/><path class="cls-1" d="m379.61,143.32c0,5.94-4.59,10.55-10.41,10.55s-10.28-4.4-10.28-10.64,4.23-10.6,10.41-10.6,10.28,4.44,10.28,10.69Zm-17.25-.04c0,4.49,2.78,7.52,6.93,7.52s6.88-3.12,6.88-7.52-2.74-7.56-6.84-7.56-6.97,3.03-6.97,7.56Z"/><path class="cls-1" d="m400.08,133.12h3.35v20.27h-3.35v-3.91c-2.03,3.03-4.32,4.4-7.41,4.4-5.6,0-9.57-4.4-9.57-10.55s4.06-10.69,9.66-10.69c3.09,0,5.34,1.19,7.32,3.83v-3.34Zm-11.78,4.93c-1.06,1.45-1.68,3.39-1.68,5.37,0,4.31,2.82,7.56,6.53,7.56s6.97-3.56,6.97-7.92-2.82-7.43-6.88-7.43c-2.21,0-3.75.75-4.94,2.42Z"/><path class="cls-1" d="m413.54,133.12v2.86c1.76-2.37,3.53-3.34,6.04-3.34,1.85,0,3.53.62,4.72,1.67,1.28,1.23,1.72,2.64,1.72,5.41v13.68h-3.35v-12.93c0-1.8-.22-2.77-.75-3.47-.62-.83-1.81-1.36-3.18-1.36-1.5,0-2.87.57-3.88,1.71-.97,1.06-1.32,2.02-1.32,3.69v12.36h-3.35v-20.27h3.35Z"/><path class="cls-1" d="m447.99,133.12h3.35v20.27h-3.35v-3.91c-2.03,3.03-4.32,4.4-7.41,4.4-5.6,0-9.57-4.4-9.57-10.55s4.06-10.69,9.66-10.69c3.09,0,5.34,1.19,7.32,3.83v-3.34Zm-11.78,4.93c-1.06,1.45-1.68,3.39-1.68,5.37,0,4.31,2.82,7.56,6.53,7.56s6.97-3.56,6.97-7.92-2.82-7.43-6.88-7.43c-2.21,0-3.75.75-4.94,2.42Z"/><path class="cls-1" d="m462.11,151.5c0,1.28-1.01,2.24-2.29,2.24s-2.29-.97-2.29-2.29.97-2.29,2.29-2.29,2.29.97,2.29,2.33Z"/><path class="cls-1" d="m483.51,124.06h3.35v29.33h-3.35v-3.47c-2.03,2.77-4.19,3.96-7.28,3.96-5.6,0-9.57-4.35-9.57-10.51s4.06-10.73,9.57-10.73c3,0,5.29,1.1,7.28,3.56v-12.14Zm-13.32,19.35c0,4.44,2.69,7.56,6.53,7.56s6.79-3.25,6.79-7.65-2.69-7.7-6.57-7.7-6.75,3.17-6.75,7.78Z"/><path class="cls-1" d="m495.56,144.33c.18,1.72.49,2.59,1.32,3.69,1.32,1.8,3.26,2.77,5.47,2.77,2.51,0,4.9-1.36,6.09-3.47l2.96,1.1c-1.68,3.39-5.16,5.45-9.04,5.45-6.04,0-10.37-4.4-10.37-10.55s4.28-10.69,10.23-10.69,10.32,4.44,10.32,10.38c0,.26,0,.84-.04,1.32h-16.94Zm13.41-2.46c-.13-1.58-.44-2.46-1.15-3.47-1.28-1.71-3.35-2.77-5.6-2.77s-4.28,1.06-5.47,2.81c-.62.97-.88,1.8-1.15,3.43h13.37Z"/><path class="cls-1" d="m520.75,133.12v2.86c1.76-2.37,3.53-3.34,6.04-3.34,1.85,0,3.53.62,4.72,1.67,1.28,1.23,1.72,2.64,1.72,5.41v13.68h-3.35v-12.93c0-1.8-.22-2.77-.75-3.47-.62-.83-1.81-1.36-3.18-1.36-1.5,0-2.87.57-3.88,1.71-.97,1.06-1.32,2.02-1.32,3.69v12.36h-3.35v-20.27h3.35Z"/><path class="cls-1" d="m558.91,143.32c0,5.94-4.59,10.55-10.41,10.55s-10.28-4.4-10.28-10.64,4.23-10.6,10.41-10.6,10.28,4.44,10.28,10.69Zm-17.25-.04c0,4.49,2.78,7.52,6.93,7.52s6.88-3.12,6.88-7.52-2.74-7.56-6.84-7.56-6.97,3.03-6.97,7.56Z"/><path class="cls-1" d="m112.77,13.09v-3.58h22.02v3.58h-7.58c-.29,2.85-.91,5.03-1.86,6.54-.95,1.52-2.07,2.73-3.37,3.63-1.3.9-2.66,1.59-4.06,2.05-1.41.46-2.78.75-4.12.87v-3.71c1.36-.09,2.72-.43,4.06-1.02,1.35-.59,2.53-1.49,3.54-2.69,1.01-1.2,1.61-3.09,1.8-5.66h-10.43Zm1.02-8.96V.49h14.62v3.65h-14.62Zm16,1.77V.49h2.33v5.42h-2.33Zm3.65,0V.49h2.33v5.42h-2.33Z"/><path class="cls-1" d="m165,5.33c-.49.9-1.35,2.08-2.59,3.55-1.24,1.47-2.43,2.65-3.57,3.55v13.53h-3.35v-11.06c-2.41,1.65-5.57,3.17-9.48,4.56v-3.03c1.82-.67,3.55-1.43,5.19-2.28,1.64-.85,3.35-2.03,5.12-3.53,1.77-1.5,3.34-3.26,4.7-5.28h3.97Z"/><path class="cls-1" d="m175.86,25.66v-3.99c2.96-.44,5.5-1.49,7.62-3.16,2.11-1.67,3.81-3.59,5.1-5.76,1.29-2.17,2.24-4.29,2.84-6.34.61-2.05,1.03-4.18,1.28-6.41h4.12c-.22,1.76-.54,3.58-.97,5.47s-1.12,3.91-2.08,6.08c-.96,2.16-2.25,4.25-3.88,6.25-1.63,2-3.66,3.72-6.11,5.16-2.44,1.44-5.08,2.34-7.93,2.71Z"/><path class="cls-1" d="m208.48,4.55V.73h20.6v4.27c-.05,3.29-.59,6.11-1.62,8.47-1.03,2.36-2.25,4.3-3.66,5.82-1.41,1.52-2.91,2.7-4.5,3.54-1.59.84-3.1,1.49-4.52,1.93-1.42.44-2.73.76-3.92.97v-3.78c1.51-.28,3.01-.71,4.52-1.3,1.51-.59,2.98-1.5,4.43-2.73,1.45-1.23,2.68-2.83,3.7-4.83,1.02-1.99,1.6-4.84,1.75-8.54h-16.77Z"/><path class="cls-1" d="m241.5,10.2v-2.84h17.68v2.84h-7.07v12.5h7.73v2.84h-18.88v-2.84h7.76v-12.5h-7.22Z"/><path class="cls-1" d="m272.15,4.34V.62h19.03c-.36,1.97-1.06,4.07-2.1,6.32-1.03,2.25-2.23,4.39-3.59,6.42,1.26,1.69,2.44,3.11,3.54,4.27,1.09,1.16,2.36,2.33,3.79,3.51v4.72c-.36-.25-1.08-.79-2.13-1.61-1.06-.82-2.19-1.83-3.41-3.02-1.22-1.19-2.6-2.81-4.16-4.84-1.87,2.2-3.56,3.93-5.07,5.19s-2.9,2.27-4.19,3.04c-1.29.76-2.31,1.31-3.06,1.63v-4.17c1.87-1.04,3.68-2.33,5.41-3.85,1.74-1.53,3.49-3.42,5.25-5.69,1.76-2.27,3.25-5,4.47-8.19h-13.78Z"/><path class="cls-1" d="m111.93,105.09c-11.46-1.99-15.29-8.54-16.5-11.81-.02-4.81-.99-10.05-2.16-13.76-2.03-6.42-3.23-14.5-14.02-22.51-.11-4.45.64-.72-.33-9.25-1.15-10.1-2.77-15.71-6.7-24.16-2.86-6.15-5.57-10.47-10.6-14.07-3.41-2.44-9.43-7.62-16.79-6.94-5.1.79-6.93,5.59-7.5,6.9-.58,1.31-3.72,1.91-4.43,4.84-.44,1.81,2.39,4.48,6.34,5.12,3.95.64,9.06,0,17.73,8.39,3.42,3.31,4.71,10.15,5.39,13.93s1.27,11.67-.03,17.92c-1.69,8.11-5.41,14.87-10.42,19.32-5.51,4.89-8.24,5.36-10.64,7.19-2.4,1.82-4.77,4.46-6.19,7.67-.4.91-.68,1.85-.94,2.86-1.36,1.73-2.26,3.32-2.54,3.86-.76,1.4-1.36,3.07-1.8,4.5-.45,1.49.7,2.84,2.24,2.64,1.48-.19,3.23-.51,4.73-1.03.33-.11,1.05-.36,1.95-.76,1.4.77,2.85,1.5,4.08,2.17,10.36,5.74,17.35,4.14,26.08,2.85,1.11-.16,2.21-.32,3.27-.47,1.38,1.39,2.68,2.35,3.15,2.67,1.34.95,3.03,1.76,4.49,2.37,1.53.63,3.39-.42,3.63-2.06.21-1.43.36-3.1.29-4.62,2.59-.41,4.52-.78,5.47-1.17.83-.34,1.49-.67,2.04-1.04,8.03,2.28,15.33,1.07,20.69-1.53Z"/><path class="cls-1" d="m29.67,91.37c-1.63.06-3.39.09-5.33.09h-6.83V17.56L33.06.16c-.88-.03-1.77-.04-2.69-.04H13.46C6.02.12,0,6.14,0,13.58v95.57h19.23l10.44-17.78Z"/><path class="cls-1" d="m199.74,41.37c-16.33,0-29.12,11.78-29.12,29.44v36.95h17.73v-37.58c0-8.14,5.06-12.53,11.4-12.53s11.4,4.38,11.4,12.53v37.58h17.73v-36.95c0-17.66-12.79-29.44-29.12-29.44Z"/><path class="cls-1" d="m173.23,48.75h12.25v21.32h-14.86v-18.7c0-1.44,1.17-2.61,2.61-2.61Z"/><path class="cls-1" d="m105.73,94.45l1.57.35c.24.05,10.69,2.24,23.87-.37-4.41-1.12-8.72-3.43-11.47-6.57-3.83-4.39-5.2-11.86-3.71-17.12.45-1.59,1.27-3.48,2.27-4.73,1.83-2.66,5.71-5.97,10.12-6.96,5.27-1.18,10.5.49,14.11,3.98l-14,6.79,7.64,15.74,29.57-14.35c-.32-2.56-1.55-8.91-6.19-14.98-7.28-11.32-21.08-17.47-34.98-14.35-17.8,3.99-28.99,21.64-25,39.44,1.11,4.94,3.27,9.37,6.2,13.11Z"/><path class="cls-1" d="m108.46,98.14s32.55,7.31,55.37-18.61c-3.48,21.32-27.04,40.35-55.37,18.61Z"/><path class="cls-1" d="m432.62,89.54c-3.54,3.07-8.15,4.93-13.2,4.93-11.16,0-20.2-9.05-20.2-20.2s9.04-20.2,20.2-20.2c4.68,0,8.97,1.6,12.39,4.27l12.55-6.41c-6.13-6.84-15.03-11.15-24.94-11.15-18.49,0-33.49,14.99-33.49,33.49s14.99,33.49,33.49,33.49c7.74,0,14.87-2.64,20.54-7.05l-7.34-11.17Z"/><circle class="cls-1" cx="418.04" cy="78.28" r="4.77"/><path class="cls-1" d="m433.22,57.62l14.86-7.58c.78-.4,1.07-1.36.64-2.12l-2.86-5.02c-.41-.71-1.3-.98-2.03-.61l-19.05,9.7,8.44,5.63Z"/><rect class="cls-1" x="434.37" y="51.01" width="9.54" height="31.76" rx="2.29" ry="2.29" transform="translate(301.62 -355.5) rotate(63.3)"/><path class="cls-1" d="m497.79,73.65s.06,0,.09,0c-.35-.3-.68-.57-.94-.78-8.84-6.86-14.86-7.2-18.82-7.84-3.95-.64-6.78-3.31-6.34-5.12.55-2.29,2.59-3.15,3.73-4.05.19-.31.41-.59.64-.83.04-.04.08-.07.11-.1.64-1.48,2.5-6,7.44-6.76,6.75-.62,12.37,3.68,15.89,6.29-1.75-6.95-4.49-9.5-6.51-11.03-4.11-2.79-6.94-4.47-11.47-4.47-7.85,0-12.72,3.29-15.59,6.31-3.32,3.47-5.35,7.67-5.7,11.19-.36,3.52-.21,3.03.04,4.84.25,1.81,1.74,6.27,5.07,9.44,2.42,2.42,5.89,4.08,8.76,5.44l5.44,2.57c2.42,1.06,4.53,2.11,6.34,3.93,1.36,1.51,1.96,3.02,1.96,4.83s-.91,3.78-2.11,4.98c-1.36,1.36-3.78,2.11-6.04,2.11-3.47,0-8.61-2.01-14.14-7.62-5.75,2.88-11.46,5.55-11.46,5.55,3.38,5.74,9.68,10.57,12.76,12.12,4.99,2.51,8.62,2.93,12.69,2.93,6.64,0,12.84-1.66,17.82-7.1,3.47-3.78,5.59-8.76,5.59-14.5,0-4.38-1.21-8.3-4.68-11.78-.18-.19-.37-.37-.56-.55Z"/><path class="cls-1" d="m552.74,93.84c-1.67.44-3.4.38-4.43.38-2.49,0-4.03-.7-5.33-1.46-1.3-.76-2.21-1.78-2.72-3.06-.55-1.29-.84-2.74-.88-4.36-.04-1.62-.06-3.51-.06-5.68V26.57h-19.89v31.23s-7.42.03-13.23.02c9.34,4.13,13,20.97,13.23,23.05.22,2.08,0,5.74,0,5.74,0,7.57,1.88,12.91,5.65,16.03,3.76,3.12,6.3,4.69,14.01,4.69,5.09,0,7.55-.16,7.57-.16,3.86-.51,11.17-3.61,11.17-11.49v-5.07s-3.43,2.79-5.1,3.23Z"/><circle class="cls-1" cx="548.56" cy="52.04" r="6.04"/><path class="cls-1" d="m273.99,40.66c-7.04,0-13.57,2.19-18.95,5.91,4.74,2.54,9.38,6.01,13.86,10.76.93-.63,2.05-1,3.26-1,2.68,0,4.93,1.8,5.62,4.26,1.16-.62,2.49-.98,3.9-.98,4.46,0,8.09,3.55,8.24,7.97,3.73.67,6.56,3.92,6.56,7.84,0,4.26-3.34,7.73-7.55,7.95,0,0-.01.01-.02.02h-5.07c1.24,6.64,6.78,9.71,6.78,9.71,0,0-13.19-1.3-20.91-9.71h-13.47s0-.04.01-.06c-3.27-.42-5.8-3.2-5.8-6.58s2.37-5.99,5.48-6.54c-.19-.64-.3-1.32-.3-2.02,0-2.55,1.35-4.78,3.37-6.03-4.19-.6-9.75-1.11-15.83-.95-1.64,3.94-2.54,8.25-2.54,12.78,0,18.41,14.93,33.34,33.34,33.34s33.34-14.93,33.34-33.34-14.93-33.34-33.34-33.34Z"/><path class="cls-1" d="m224.52,44.1c4.86,4.19,5.69,5.46,9.89,14.17,15.99-2.55,31.08,1.45,31.08,1.45-12.47-13.87-26.48-15.87-40.96-15.62Z"/></g></svg>